/* XPM */
static char *graphic[] = {
/* width height num_colors chars_per_pixel */
"80 80 128 2", 
/* colors */
"   c #1F3442",
".  c #ADB4BA",
"X  c #E3E5E7",
"o  c #FDFDFD",
"O  c #9AA3A9",
"+  c #E1E4E6",
"@  c #1B303E",
"#  c #FBFCFC",
"$  c #021A2B",
"%  c #FDFDFE",
"&  c #89939A",
"*  c #D0D4D7",
"=  c #DDE0E2",
"-  c #283C4A",
";  c #7A868E",
":  c #EAECED",
">  c #5E6D77",
",  c #F7F8F8",
"<  c #263947",
"1  c #081F2E",
"2  c #F9F9FA",
"3  c #969FA6",
"4  c #0A2030",
"5  c #4F606B",
"6  c #172C3B",
"7  c #243846",
"8  c #4D5D68",
"9  c #F7F8F9",
"0  c #BDC3C7",
"q  c #081F2F",
"w  c #A1AAB0",
"e  c #CACFD2",
"r  c #929BA2",
"t  c #061C2C",
"y  c #65727C",
"u  c #495965",
"i  c #203443",
"p  c #B7BEC2",
"a  c #FEFFFF",
"s  c #C4CACD",
"d  c #9BA5AB",
"f  c #3A4C59",
"g  c #FCFCFC",
"h  c #FAFBFB",
"j  c #52616C",
"k  c #293C4A",
"l  c #FCFCFD",
"z  c #CFD3D6",
"x  c #1A2F3E",
"c  c #031A2A",
"v  c #50606B",
"b  c #7B868F",
"n  c #344754",
"m  c #6A7881",
"M  c #5B6973",
"N  c #4E5F6A",
"B  c #091F2F",
"V  c #DCDFE2",
"C  c #4C5C67",
"Z  c #233745",
"A  c #BCC2C6",
"S  c #071E2E",
"D  c #A0A9AF",
"F  c #66747D",
"G  c #68757F",
"H  c #3F505D",
"J  c #AFB6BC",
"K  c #233746",
"L  c #E3E6E7",
"P  c #041C2C",
"I  c #FFFFFF",
"U  c #2E404E",
"Y  c #465762",
"T  c #B6BDC1",
"R  c #FDFEFE",
"E  c #021B2B",
"W  c #62707A",
"Q  c #394B58",
"!  c #DFE2E4",
"~  c #53636E",
"^  c #ECEEEF",
"/  c #8B959D",
"(  c #6F7C86",
")  c #192E3D",
"_  c #B2B9BE",
"`  c #E8EAEB",
"'  c #5C6B75",
"]  c #334653",
"[  c #5E6C77",
"{  c #F5F6F6",
"}  c #081E2E",
"|  c #AEB5BA",
" . c #223644",
".. c #BBC1C5",
"X. c #061D2D",
"o. c #5A6873",
"O. c #D5D9DB",
"+. c #D7DADD",
"@. c #223645",
"#. c #112635",
"$. c #586772",
"%. c #C8CDD1",
"&. c #FEFEFE",
"*. c #A8B0B5",
"=. c #EFF1F2",
"-. c #FCFDFD",
";. c #54636E",
":. c #FEFEFF",
">. c #C4C9CD",
",. c #D1D5D8",
"<. c #FAFAFA",
"1. c #6E7B84",
"2. c #B5BCC1",
"3. c #DEE1E3",
"4. c #52626D",
"5. c #09202F",
"6. c #FAFAFB",
"7. c #0B2131",
"8. c #344653",
"9. c #031B2B",
"0. c #324552",
"q. c #CBD0D3",
"w. c #41525F",
"e. c #071D2D",
"r. c #DADDE0",
"t. c #E5E8E9",
"y. c #051C2C",
"u. c #2E414E",
/* pixels */
"E 9.9.9.9.9.9.9.9.9.9.9.9.9.9.9.9.9.9.9.9.9.9.9.9.9.9.9.9.9.9.9.9.9.9.9.9.9.9.9.9.9.9.9.9.9.9.9.9.9.9.9.9.9.9.9.9.9.9.9.9.9.9.9.9.9.9.9.9.9.9.9.9.9.9.9.9.9.9.$ ",
"9.y.y.y.y.y.y.y.y.y.y.y.y.y.y.y.y.y.y.y.y.y.y.y.y.y.y.y.y.y.y.y.y.y.y.y.y.y.y.y.y.y.y.y.y.y.y.y.y.y.y.y.y.y.y.y.y.y.y.y.y.y.y.y.y.y.y.y.y.y.y.y.y.y.y.y.y.y.y.c ",
"9.y.y.y.y.y.y.y.y.y.y.y.y.y.y.y.y.y.y.y.y.y.y.y.y.y.y.y.y.y.y.y.y.y.y.y.y.y.y.y.y.y.y.y.y.y.y.y.y.y.y.y.y.y.y.y.y.y.y.y.y.y.y.y.y.y.y.y.y.y.y.y.y.y.y.y.y.y.y.c ",
"9.y.y.y.y.y.y.y.y.y.y.y.y.y.y.y.y.y.y.y.y.y.y.y.y.y.y.y.y.y.y.y.y.y.y.y.y.y.y.y.y.y.y.y.y.y.y.y.y.y.y.y.y.y.y.y.y.y.y.y.y.y.y.y.y.y.y.y.y.y.y.y.y.y.y.y.y.y.y.c ",
"9.y.y.y.y.y.y.y.y.y.y.y.y.y.y.y.y.y.y.y.y.y.y.y.y.y.y.y.y.y.y.y.y.y.y.y.y.y.y.y.y.y.y.y.y.y.y.y.y.y.y.y.y.y.y.y.y.y.y.y.y.y.y.y.y.y.y.y.y.y.y.y.y.y.y.y.y.y.y.c ",
"9.y.y.y.y.y.y.y.y.y.y.y.y.y.y.y.y.y.y.y.y.y.y.y.y.y.y.y.y.y.y.y.y.y.y.y.y.y.y.y.y.y.y.y.y.y.y.y.y.y.y.y.y.y.y.y.y.y.y.y.y.y.y.y.y.y.y.y.y.y.y.y.y.y.y.y.y.y.y.c ",
"9.y.y.y.y.y.y.y.y.y.y.y.y.y.y.y.y.y.y.y.y.y.y.y.y.y.y.y.y.y.y.y.y.y.y.y.y.y.y.y.y.y.y.y.y.y.y.y.y.y.y.y.y.y.y.y.y.y.y.y.y.y.y.y.y.y.y.y.y.y.y.y.y.y.y.y.y.y.y.c ",
"9.y.y.y.y.y.y.y.y.y.y.y.y.y.y.y.y.y.y.y.y.y.y.y.y.y.y.y.y.y.y.y.y.y.y.y.y.y.y.y.y.y.y.y.y.y.y.y.y.y.y.y.y.y.y.y.y.y.y.y.y.y.y.y.y.y.y.y.y.y.y.y.y.y.y.y.y.y.y.c ",
"9.y.y.y.y.y.y.y.y.y.y.y.y.y.y.y.y.y.y.y.y.y.y.y.y.y.y.y.y.y.y.y.y.y.y.y.y.y.y.y.y.y.y.y.y.y.y.y.y.y.y.y.y.y.y.y.y.y.y.y.y.y.y.y.y.y.y.y.y.y.y.y.y.y.y.y.y.y.y.c ",
"9.y.y.y.y.y.y.y.y.y.y.y.y.y.y.y.y.y.y.y.y.y.y.y.y.y.y.y.y.y.y.y.y.y.y.y.y.y.y.y.y.y.y.y.y.y.y.y.y.y.y.y.y.y.y.y.y.y.y.y.y.y.y.y.y.y.y.y.y.y.y.y.y.y.y.y.y.y.y.c ",
"9.y.y.y.y.y.y.y.y.y.y.y.y.y.y.y.y.y.y.y.y.y.y.y.y.y.y.y.y.y.y.y.y.y.y.y.y.y.y.y.y.y.y.y.y.y.y.y.y.y.y.y.y.y.y.y.y.y.y.y.y.y.y.y.y.y.y.y.y.y.y.y.y.y.y.y.y.y.y.c ",
"9.y.y.y.y.y.y.y.y.y.y.y.y.y.y.y.y.y.e.y.y.y.y.y.y.y.y.y.y.y.y.y.y.y.y.y.y.y.y.y.y.y.y.y.y.y.y.y.y.y.y.y.y.y.y.y.y.y.y.y.y.y.y.y.y.y.y.y.y.y.y.y.y.y.y.y.y.y.y.c ",
"9.y.y.y.y.y.y.y.y.y.y.y.y.y.y.y.y.X.C   y.y.y.y.y.y.y.y.y.y.y.y.y.y.y.y.y.y.y.y.y.y.y.y.y.y.y.y.y.y.y.y.y.y.y.y.y.y.y.y.y.y.y.y.y.y.y.y.y.y.y.y.y.y.y.y.y.y.y.c ",
"9.y.y.y.y.y.y.y.y.y.y.y.y.y.y.y.y.e.3 | K y.y.y.y.y.y.y.y.y.y.y.y.y.y.y.y.y.y.y.y.y.y.y.y.y.y.y.y.y.y.y.y.y.y.y.y.y.y.y.y.y.y.y.y.y.y.y.y.y.y.y.y.y.y.y.y.y.y.c ",
"9.y.y.y.y.y.y.y.y.y.y.y.y.y.y.y.y.e.O l 2.- y.y.y.y.y.y.y.y.y.y.y.y.y.y.y.y.y.y.y.y.y.y.y.y.y.y.y.y.y.y.y.y.y.y.y.y.y.y.y.y.y.y.y.y.y.y.y.y.y.y.y.y.y.y.y.y.y.c ",
"9.y.y.y.y.y.y.y.y.y.y.y.y.y.y.y.y.e.O I o 0 u.t y.y.y.y.y.y.y.y.y.y.y.y.y.y.y.y.y.y.y.y.y.y.y.y.y.y.y.y.y.y.y.y.y.y.y.y.y.y.y.y.y.y.y.y.y.y.y.y.y.y.y.y.y.y.y.c ",
"9.y.y.y.y.y.y.y.y.y.y.y.y.y.y.y.y.e.O I I R s n X.y.y.y.y.y.y.y.y.y.y.y.y.y.y.y.y.y.y.y.y.y.y.y.y.y.y.y.y.y.y.y.y.y.y.y.y.y.y.y.y.y.y.y.y.y.y.y.y.y.y.y.y.y.y.c ",
"9.y.y.y.y.y.y.y.y.y.y.y.y.y.y.y.y.e.O I I I &.q.f X.y.y.y.y.y.y.y.y.y.y.y.y.y.y.y.y.y.y.y.y.y.y.y.y.y.y.y.y.y.y.y.y.y.y.y.y.y.y.y.y.y.y.y.y.y.y.y.y.y.y.y.y.y.c ",
"9.y.y.y.y.y.y.y.y.y.y.y.y.y.y.y.y.e.O I I &.I &.,.w.e.y.y.y.y.y.y.y.y.y.y.y.y.y.y.y.y.y.y.y.y.y.y.y.y.y.y.y.y.y.y.y.y.y.y.y.y.y.y.y.y.y.y.y.y.y.y.y.y.y.y.y.y.c ",
"9.y.y.y.y.y.y.y.y.y.y.y.y.y.y.y.y.e.O I <...=.I :.+.u S y.y.y.y.y.y.y.y.y.y.y.y.y.y.y.y.y.y.y.y.y.y.y.y.y.y.y.y.y.y.y.y.y.y.y.y.y.y.y.y.y.y.y.y.y.y.y.y.y.y.y.c ",
"9.y.y.y.y.y.y.y.y.y.y.y.y.y.y.y.y.e.O I , o.( ^ I I = v 1 y.y.y.y.y.y.y.y.y.y.y.y.y.y.y.y.y.y.y.y.y.y.y.y.y.y.y.y.y.y.y.y.y.y.y.y.y.y.y.y.y.y.y.y.y.y.y.y.y.y.c ",
"9.y.y.y.y.y.y.y.y.y.y.y.y.y.y.y.y.e.O I , j 7.F ` I I + $.5.y.y.y.y.y.y.y.y.y.y.y.y.y.y.y.y.y.y.y.y.y.y.y.y.y.y.y.y.y.y.y.y.y.y.y.y.y.y.y.y.y.y.y.y.y.y.y.y.y.c ",
"9.y.y.y.y.y.y.y.y.y.y.y.y.y.y.y.y.e.O I , j y.4 ' L I I t.> q y.y.y.y.y.y.y.y.y.y.y.y.y.y.y.y.y.y.y.y.y.y.y.y.y.y.y.y.y.y.y.y.y.y.y.y.y.y.y.y.y.y.y.y.y.y.y.y.c ",
"9.y.y.y.y.y.y.y.y.y.y.y.y.y.y.y.y.e.O I , j y.y.q ~ 3.I I %.6 y.y.y.y.y.y.y.y.y.y.y.y.y.y.y.y.y.y.y.y.y.y.y.y.y.y.y.y.y.y.y.y.y.y.y.y.y.y.y.y.y.y.y.y.y.y.y.y.c ",
"9.y.y.y.y.y.y.y.y.y.y.y.y.y.y.y.y.e.O I , j y.y.y.S m 6.I z ) y.y.y.y.y.y.y.y.y.y.y.y.y.y.y.y.y.y.y.y.y.y.y.y.y.y.y.y.y.y.y.y.y.y.y.y.y.y.y.y.y.y.y.y.y.y.y.y.c ",
"9.y.y.y.y.y.y.y.y.y.y.y.y.y.y.y.y.e.O I , j y.y.y.y.4.9 I z ) y.y.y.y.y.y.y.y.y.y.y.y.y.y.y.y.y.y.y.y.y.y.y.y.y.y.y.y.y.y.y.y.y.y.y.y.y.y.y.y.y.y.y.y.y.y.y.y.c ",
"9.y.y.y.y.y.y.y.y.y.y.y.y.y.y.y.y.e.O I , j y.y.y.y.4.9 I z ) y.y.y.y.y.y.y.y.y.y.y.y.y.y.y.y.y.y.y.y.y.y.y.y.y.y.y.y.y.y.y.y.y.y.y.y.y.y.y.y.y.y.y.y.y.y.y.y.c ",
"9.y.y.y.y.y.y.y.y.y.y.y.y.y.y.y.y.e.O I , j y.y.y.y.4.9 I z ) y.y.y.y.y.y.y.y.y.y.y.y.y.y.y.y.y.y.y.y.y.y.y.y.y.y.y.y.y.y.y.y.y.y.y.y.y.y.y.y.y.y.y.y.y.y.y.y.c ",
"9.y.y.y.y.y.y.y.y.y.y.y.y.y.y.y.y.e.O I , j y.y.y.y.4.9 I z ) y.y.y.y.y.y.y.y.y.y.y.y.y.y.y.y.y.y.y.y.y.y.y.y.y.y.y.y.y.y.y.y.y.y.y.y.y.y.y.y.y.y.y.y.y.y.y.y.c ",
"9.y.y.y.y.y.y.y.y.y.y.y.y.y.y.y.y.e.O I , j y.y.y.y.4.9 I z ) y.y.y.y.y.y.y.y.y.y.y.y.y.y.y.y.y.y.y.y.y.y.y.y.y.y.y.y.y.y.y.y.y.y.y.y.y.y.y.y.y.y.y.y.y.y.y.y.c ",
"9.y.y.y.y.y.y.y.y.y.y.y.y.y.y.y.y.e.O I , j y.y.y.y.4.9 I z ) y.y.y.y.y.y.y.y.y.y.y.y.y.y.y.y.y.y.y.y.y.y.y.y.y.y.y.y.y.y.y.y.y.y.y.y.y.y.y.y.y.y.y.y.y.y.y.y.c ",
"9.y.y.y.y.y.y.y.y.y.y.y.y.y.y.y.y.e.O I , j y.y.y.y.4.9 I z ) y.y.y.y.y.y.y.y.y.y.y.y.y.y.y.y.y.y.y.y.y.y.y.y.y.y.y.y.y.y.y.y.y.y.y.y.y.y.y.y.y.y.y.y.y.y.y.y.c ",
"9.y.y.y.y.y.y.y.y.y.y.y.y.y.y.y.y.e.O I , j y.y.y.y.4.9 I z ) y.y.y.y.y.y.y.y.y.y.y.y.y.y.y.y.y.y.y.y.y.y.y.y.y.y.y.y.y.y.y.y.y.y.y.y.y.y.y.y.y.y.y.y.y.y.y.y.c ",
"9.y.y.y.y.y.y.y.y.y.y.y.y.y.y.y.y.e.O I , j y.y.y.y.4.9 I z ) y.y.y.y.y.y.y.y.y.y.y.y.y.y.y.y.y.y.y.y.y.y.y.y.y.y.y.y.y.y.y.y.y.y.y.y.y.y.y.y.y.y.y.y.y.y.y.y.c ",
"9.y.y.y.y.y.y.y.y.y.y.y.y.y.y.y.y.e.O I , j y.y.y.y.4.9 I z ) y.y.y.y.y.y.y.y.y.y.y.y.y.y.y.y.y.y.y.y.y.y.y.y.y.y.y.y.y.y.y.y.y.y.y.y.y.y.y.y.y.y.y.y.y.y.y.y.c ",
"9.y.y.y.y.y.y.y.y.y.y.y.y.y.y.y.y.e.O I , j y.y.y.y.4.9 I z ) y.y.y.y.y.y.y.y.y.y.y.y.y.y.y.y.y.y.y.y.y.y.y.y.y.y.y.y.y.y.y.y.y.y.y.y.y.y.y.y.y.y.y.y.y.y.y.y.c ",
"9.y.y.y.y.y.y.y.y.y.y.y.y.y.y.y.y.e.O I , j y.y.y.y.4.9 I z ) y.y.y.y.y.y.y.y.y.y.y.y.y.y.y.y.y.y.y.y.y.y.y.y.y.y.y.y.y.y.y.y.y.y.y.y.y.y.y.y.y.y.y.y.y.y.y.y.c ",
"9.y.y.y.y.y.y.y.y.y.y.y.y.y.y.y.y.e.O I , j y.y.y.y.4.9 I z ) y.y.y.y.y.y.y.y.y.y.y.y.y.y.y.y.y.y.y.y.y.y.y.y.y.y.y.y.y.y.y.y.y.y.y.y.y.y.y.y.y.y.y.y.y.y.y.y.c ",
"9.y.y.y.y.y.y.y.y.y.y.y.y.y.y.y.y.e.O I , j y.y.y.y.4.9 I z ) y.y.y.y.y.y.y.y.y.y.y.y.y.y.y.y.y.y.y.y.y.y.y.y.y.y.y.y.y.y.y.y.y.y.y.y.y.y.y.y.y.y.y.y.y.y.y.y.c ",
"9.y.y.y.y.y.y.y.y.y.y.y.y.y.y.y.y.e.O I , j y.y.y.y.4.9 I z ) y.y.y.y.y.y.y.y.y.y.y.y.y.y.y.y.y.y.y.y.y.y.y.y.y.y.y.y.y.y.y.y.y.y.y.y.y.y.y.y.y.y.y.y.y.y.y.y.c ",
"9.y.y.y.y.y.y.y.y.y.y.y.y.y.y.y.y.e.O I , j y.y.y.y.4.9 I z ) y.y.y.y.y.y.y.y.y.y.y.y.y.y.y.y.y.y.y.y.y.y.y.y.y.y.y.y.y.y.y.y.y.y.y.y.y.y.y.y.y.y.y.y.y.y.y.y.c ",
"9.y.y.y.y.y.y.y.y.y.y.y.y.y.y.y.y.e.O I , j y.y.y.y.4.9 I z ) y.y.y.y.y.y.y.y.y.y.y.y.y.y.y.y.y.y.y.y.y.y.y.y.y.y.y.y.y.y.y.y.y.y.y.y.y.y.y.y.y.y.y.y.y.y.y.y.c ",
"9.y.y.y.y.y.y.y.y.y.y.y.y.y.y.y.y.e.O I , j y.y.y.y.4.9 I z ) y.y.y.y.y.y.y.y.y.y.y.y.y.y.y.y.y.y.y.y.y.y.y.y.y.y.y.y.y.y.y.y.y.y.y.y.y.y.y.y.y.y.y.y.y.y.y.y.c ",
"9.y.y.y.y.y.y.y.y.y.y.y.y.y.y.y.y.e.O I , j y.y.y.y.4.9 I z ) y.y.y.y.y.y.y.y.y.y.y.y.y.y.y.y.y.y.y.y.y.y.y.y.y.y.y.y.y.y.y.y.y.y.y.y.y.y.y.y.y.y.y.y.y.y.y.y.c ",
"9.y.y.y.y.y.y.y.y.y.y.y.y.y.y.y.y.e.O I , j y.y.y.y.4.9 I z ) y.y.y.y.y.y.y.y.y.y.y.y.y.y.y.y.y.y.y.y.y.y.y.y.y.y.y.y.y.y.y.y.y.y.y.y.y.y.y.y.y.y.y.y.y.y.y.y.c ",
"9.y.y.y.y.y.y.y.y.y.y.y.y.y.y.y.y.e.O I , j y.y.y.y.4.9 I z ) y.y.y.y.y.y.y.y.y.y.y.y.y.y.y.y.y.y.y.y.y.y.y.y.y.y.y.y.y.y.y.y.y.y.y.y.y.y.y.y.y.y.y.y.y.y.y.y.c ",
"9.y.y.y.y.y.y.y.y.y.y.y.y.y.y.y.y.e.O I , j y.y.y.y.4.9 I z ) y.y.y.y.y.y.y.y.y.y.y.y.y.y.y.y.y.y.y.y.y.y.y.y.y.y.y.y.y.y.y.y.y.y.y.y.y.y.y.y.y.y.y.y.y.y.y.y.c ",
"9.y.y.y.y.y.y.y.y.y.y.y.y.y.y.y.y.e.O I , j y.y.y.y.4.9 I z ) y.y.y.y.y.y.y.y.y.y.y.y.y.y.y.y.y.y.y.y.y.y.y.y.y.y.y.y.y.y.y.y.y.y.y.y.y.y.y.y.y.y.y.y.y.y.y.y.c ",
"9.y.y.y.y.y.y.y.y.y.y.y.y.y.y.y.y.e.O I , j y.y.y.y.4.9 I z ) y.y.y.y.y.y.y.y.y.y.y.y.y.y.y.y.y.y.y.y.y.y.y.y.y.y.y.y.y.y.y.y.y.y.y.y.y.y.y.y.y.y.y.y.y.y.y.y.c ",
"9.y.y.y.y.y.y.y.y.y.y.y.y.y.y.y.y.e.O I , j y.y.y.y.4.9 I z ) y.y.y.y.y.y.y.y.y.y.y.y.y.y.y.y.y.y.y.y.y.y.y.y.y.y.y.y.y.y.y.y.y.y.y.y.y.y.y.y.y.y.y.y.y.y.y.y.c ",
"9.y.y.y.y.y.y.y.y.y.y.y.y.y.y.y.y.e.O I , j y.y.y.y.4.9 I z ) y.y.y.y.y.y.y.y.y.y.y.y.y.y.y.y.y.y.y.y.y.y.y.y.y.y.y.y.y.y.y.y.y.y.y.y.y.y.y.y.y.y.y.y.y.y.y.y.c ",
"9.y.y.y.y.y.y.y.y.y.y.y.y.y.y.y.y.e.O I , j y.y.y.y.4.9 I z ) y.y.y.y.y.y.y.y.y.y.y.y.y.y.y.y.y.y.y.y.y.y.y.y.y.y.y.y.y.y.y.y.y.y.y.y.y.y.y.y.y.y.y.y.y.y.y.y.c ",
"9.y.y.y.y.y.y.y.y.y.y.y.y.y.y.y.y.e.O I , j y.y.y.y.4.9 I z ) y.y.y.y.y.y.y.y.y.y.y.y.y.y.y.y.y.y.y.y.y.y.y.y.y.y.y.y.y.y.y.y.y.y.y.y.y.y.y.y.y.y.y.y.y.y.y.y.c ",
"9.y.y.y.y.y.y.y.y.y.y.y.y.y.y.y.y.e.O I , j y.y.y.y.4.9 I z ) y.y.y.y.y.y.y.y.y.y.y.y.y.y.y.y.y.y.y.y.y.y.y.y.y.y.y.y.y.y.y.y.y.y.y.y.y.y.y.y.y.y.y.y.y.y.y.y.c ",
"9.y.y.y.y.y.y.y.y.y.y.y.y.y.y.y.y.e.O I , j y.y.y.y.4.9 I z ) y.y.y.y.y.y.y.y.y.y.y.y.y.y.y.y.y.y.y.y.y.y.y.y.y.y.y.y.y.y.y.y.y.y.y.y.y.y.y.y.y.y.y.y.y.y.y.y.c ",
"9.y.y.y.y.y.y.y.y.y.y.y.y.y.y.y.y.e.O I , j y.y.y.y.4.9 I z ) y.y.y.y.y.y.y.y.y.y.y.y.y.y.y.y.y.y.y.y.y.y.y.y.y.y.y.y.y.y.y.y.y.y.y.y.y.y.y.y.y.y.y.y.y.y.y.y.c ",
"9.y.y.y.y.y.y.y.y.y.y.y.y.y.y.y.y.e.O I h 3 G M #.y.4.9 I z ) y.Z y G G G G G G G G G G G G G G G [ @ y.y.y.y.y.y.y.y.y.y.y.y.y.y.y.y.y.y.y.y.y.y.y.y.y.y.y.y.c ",
"9.y.y.y.y.y.y.y.y.y.y.y.y.y.y.y.y.e.O I I % o r. .y.4.9 I z ) y.N { o o o o o o o o o o o o o o o 2 *.i y.y.y.y.y.y.y.y.y.y.y.y.y.y.y.y.y.y.y.y.y.y.y.y.y.y.y.c ",
"9.y.y.y.y.y.y.y.y.y.y.y.y.y.y.y.y.e.O I I I I V  .y.4.9 I z ) y.5 , I I I I I I I I I I I I I I I I # J 7 y.y.y.y.y.y.y.y.y.y.y.y.y.y.y.y.y.y.y.y.y.y.y.y.y.y.c ",
"9.y.y.y.y.y.y.y.y.y.y.y.y.y.y.y.y.X.W D D D D / 6 y.4.9 I z ) y.] d D D D D D D D D D D D D D D w z % l T k y.y.y.y.y.y.y.y.y.y.y.y.y.y.y.y.y.y.y.y.y.y.y.y.y.c ",
"9.y.y.y.y.y.y.y.y.y.y.y.y.y.y.y.y.y.S q q q q 1 y.y.4.9 I z ) y.X.q q q q q q q q q q q q q q q B U A o o 0 u.t y.y.y.y.y.y.y.y.y.y.y.y.y.y.y.y.y.y.y.y.y.y.y.c ",
"9.y.y.y.y.y.y.y.y.y.y.y.y.y.y.y.y.y.y.y.y.y.y.y.y.y.4.9 I z ) y.y.y.y.y.y.y.y.y.y.y.y.y.y.y.y.y.y.y.k p -.R >.8.X.y.y.y.y.y.y.y.y.y.y.y.y.y.y.y.y.y.y.y.y.y.y.c ",
"9.y.y.y.y.y.y.y.y.y.y.y.y.y.y.y.y.y.y.y.y.y.y.y.y.y.4.9 I z ) y.y.y.y.y.y.y.y.y.y.y.y.y.y.y.y.y.y.y.y.< _ g &.e Q X.y.y.y.y.y.y.y.y.y.y.y.y.y.y.y.y.y.y.y.y.y.c ",
"9.y.y.y.y.y.y.y.y.y.y.y.y.y.y.y.y.y.y.y.y.y.y.y.y.y.4.9 I z ) y.y.y.y.y.y.y.y.y.y.y.y.y.y.y.y.y.y.y.y.y.@.. # &.* H X.y.y.y.y.y.y.y.y.y.y.y.y.y.y.y.y.y.y.y.y.c ",
"9.y.y.y.y.y.y.y.y.y.y.y.y.y.y.y.y.y.y.y.y.y.y.y.y.y.4.9 I X ; 1.1.1.1.1.1.1.1.1.1.1.1.1.1.1.1.1.1.1.1.1.1.& : I &.O.Y S y.y.y.y.y.y.y.y.y.y.y.y.y.y.y.y.y.y.y.c ",
"9.y.y.y.y.y.y.y.y.y.y.y.y.y.y.y.y.y.y.y.y.y.y.y.y.y.4.9 I I R R R R R R R R R R R R R R R R R R R R R R R R a I I I r.8 } y.y.y.y.y.y.y.y.y.y.y.y.y.y.y.y.y.y.c ",
"9.y.y.y.y.y.y.y.y.y.y.y.y.y.y.y.y.y.y.y.y.y.y.y.y.y.4.9 I I I I I I I I I I I I I I I I I I I I I I I I I I I I I I I ! ;.q y.y.y.y.y.y.y.y.y.y.y.y.y.y.y.y.y.c ",
"9.y.y.y.y.y.y.y.y.y.y.y.y.y.y.y.y.y.y.y.y.y.y.y.y.y.0.r 3 3 3 3 3 3 3 3 3 3 3 3 3 3 3 3 3 3 3 3 3 3 3 3 3 3 3 3 3 3 3 3 b x y.y.y.y.y.y.y.y.y.y.y.y.y.y.y.y.y.c ",
"9.y.y.y.y.y.y.y.y.y.y.y.y.y.y.y.y.y.y.y.y.y.y.y.y.y.y.X.X.X.X.X.X.X.X.X.X.X.X.X.X.X.X.X.X.X.X.X.X.X.X.X.X.X.X.X.X.X.X.X.X.y.y.y.y.y.y.y.y.y.y.y.y.y.y.y.y.y.y.c ",
"9.y.y.y.y.y.y.y.y.y.y.y.y.y.y.y.y.y.y.y.y.y.y.y.y.y.y.y.y.y.y.y.y.y.y.y.y.y.y.y.y.y.y.y.y.y.y.y.y.y.y.y.y.y.y.y.y.y.y.y.y.y.y.y.y.y.y.y.y.y.y.y.y.y.y.y.y.y.y.c ",
"9.y.y.y.y.y.y.y.y.y.y.y.y.y.y.y.y.y.y.y.y.y.y.y.y.y.y.y.y.y.y.y.y.y.y.y.y.y.y.y.y.y.y.y.y.y.y.y.y.y.y.y.y.y.y.y.y.y.y.y.y.y.y.y.y.y.y.y.y.y.y.y.y.y.y.y.y.y.y.c ",
"9.y.y.y.y.y.y.y.y.y.y.y.y.y.y.y.y.y.y.y.y.y.y.y.y.y.y.y.y.y.y.y.y.y.y.y.y.y.y.y.y.y.y.y.y.y.y.y.y.y.y.y.y.y.y.y.y.y.y.y.y.y.y.y.y.y.y.y.y.y.y.y.y.y.y.y.y.y.y.c ",
"9.y.y.y.y.y.y.y.y.y.y.y.y.y.y.y.y.y.y.y.y.y.y.y.y.y.y.y.y.y.y.y.y.y.y.y.y.y.y.y.y.y.y.y.y.y.y.y.y.y.y.y.y.y.y.y.y.y.y.y.y.y.y.y.y.y.y.y.y.y.y.y.y.y.y.y.y.y.y.c ",
"9.y.y.y.y.y.y.y.y.y.y.y.y.y.y.y.y.y.y.y.y.y.y.y.y.y.y.y.y.y.y.y.y.y.y.y.y.y.y.y.y.y.y.y.y.y.y.y.y.y.y.y.y.y.y.y.y.y.y.y.y.y.y.y.y.y.y.y.y.y.y.y.y.y.y.y.y.y.y.c ",
"9.y.y.y.y.y.y.y.y.y.y.y.y.y.y.y.y.y.y.y.y.y.y.y.y.y.y.y.y.y.y.y.y.y.y.y.y.y.y.y.y.y.y.y.y.y.y.y.y.y.y.y.y.y.y.y.y.y.y.y.y.y.y.y.y.y.y.y.y.y.y.y.y.y.y.y.y.y.y.c ",
"9.y.y.y.y.y.y.y.y.y.y.y.y.y.y.y.y.y.y.y.y.y.y.y.y.y.y.y.y.y.y.y.y.y.y.y.y.y.y.y.y.y.y.y.y.y.y.y.y.y.y.y.y.y.y.y.y.y.y.y.y.y.y.y.y.y.y.y.y.y.y.y.y.y.y.y.y.y.y.c ",
"9.y.y.y.y.y.y.y.y.y.y.y.y.y.y.y.y.y.y.y.y.y.y.y.y.y.y.y.y.y.y.y.y.y.y.y.y.y.y.y.y.y.y.y.y.y.y.y.y.y.y.y.y.y.y.y.y.y.y.y.y.y.y.y.y.y.y.y.y.y.y.y.y.y.y.y.y.y.y.c ",
"9.y.y.y.y.y.y.y.y.y.y.y.y.y.y.y.y.y.y.y.y.y.y.y.y.y.y.y.y.y.y.y.y.y.y.y.y.y.y.y.y.y.y.y.y.y.y.y.y.y.y.y.y.y.y.y.y.y.y.y.y.y.y.y.y.y.y.y.y.y.y.y.y.y.y.y.y.y.y.c ",
"9.y.y.y.y.y.y.y.y.y.y.y.y.y.y.y.y.y.y.y.y.y.y.y.y.y.y.y.y.y.y.y.y.y.y.y.y.y.y.y.y.y.y.y.y.y.y.y.y.y.y.y.y.y.y.y.y.y.y.y.y.y.y.y.y.y.y.y.y.y.y.y.y.y.y.y.y.y.y.c ",
"$ c c c c c c c c c c c c c c c c c c c c c c c c c c c c c c c c c c c c c c c c c c c c c c c c c c c c c c c c c c c c c c c c c c c c c c c c c c c c c c P "
};
