/* XPM */
static char *graphic[] = {
/* width height num_colors chars_per_pixel */
"64 64 115 2", 
/* colors */
"   c #E3E5E7",
".  c #BAC0C5",
"X  c #2E414F",
"o  c #FDFDFD",
"O  c #485965",
"+  c #0E2433",
"@  c #E1E4E6",
"#  c #A7AFB4",
"$  c #1B303E",
"%  c #465662",
"&  c #FBFCFC",
"*  c #021A2B",
"=  c #0C2332",
"-  c #FDFDFE",
";  c #DDE0E2",
":  c #283C4A",
">  c #5E6D77",
",  c #CED3D6",
"<  c #263947",
"1  c #F9F9FA",
"2  c #0A2030",
"3  c #B0B7BC",
"4  c #87929A",
"5  c #243846",
"6  c #F7F8F9",
"7  c #F3F4F4",
"8  c #AEB6BB",
"9  c #061C2C",
"0  c #2F414E",
"q  c #76828B",
"w  c #203442",
"e  c #112736",
"r  c #1E3341",
"t  c #ACB3B9",
"y  c #727E87",
"u  c #2D404E",
"i  c #EFF0F1",
"p  c #9DA6AD",
"a  c #112737",
"s  c #FCFCFC",
"d  c #7D8991",
"f  c #1C303F",
"g  c #8C969E",
"h  c #FAFBFB",
"j  c #B5BBC0",
"k  c #293C4A",
"l  c #FCFCFD",
"z  c #0B2231",
"x  c #0D2333",
"c  c #A6AEB4",
"v  c #E9EBEC",
"b  c #869198",
"n  c #F6F7F7",
"m  c #091F2F",
"M  c #AFB6BB",
"N  c #6A7680",
"B  c #071E2E",
"V  c #5B6974",
"C  c #142A39",
"Z  c #213644",
"A  c #D8DBDE",
"S  c #F2F3F4",
"D  c #8F99A0",
"F  c #FFFFFF",
"G  c #102635",
"H  c #394B57",
"J  c #A9B1B6",
"K  c #D4D7DA",
"L  c #1F3342",
"P  c #B8BEC3",
"I  c #D2D6D9",
"U  c #FBFBFB",
"Y  c #A7AEB4",
"T  c #ECEEEF",
"R  c #F9FAFA",
"E  c #51606B",
"W  c #FBFBFC",
"Q  c #A5ADB3",
"!  c #DBDEE0",
"~  c #4F5F6A",
"^  c #081E2E",
"/  c #E8EAEC",
"(  c #061D2D",
")  c #65737D",
"_  c #FEFEFE",
"`  c #E2E5E7",
"'  c #9DA5AC",
"]  c #EFF1F2",
"[  c #FCFDFD",
"{  c #B7BDC2",
"}  c #C2C8CB",
"|  c #0D2433",
" . c #6E7B84",
".. c #031B2A",
"X. c #0B2130",
"o. c #DEE1E3",
"O. c #182D3B",
"+. c #F8F9F9",
"@. c #959FA5",
"#. c #273A48",
"$. c #09202F",
"%. c #0B2131",
"&. c #182D3C",
"*. c #41525E",
"=. c #B1B8BD",
"-. c #BEC4C8",
";. c #68767F",
":. c #071D2D",
">. c #E5E8E9",
",. c #142938",
"<. c #ADB4B9",
"1. c #051C2C",
"2. c #2E414E",
"3. c #576670",
"4. c #9EA7AD",
/* pixels */
"* ............................................................................................................................* ",
"..1.1.1.1.1.1.1.1.1.1.1.1.1.1.1.1.1.1.1.1.1.1.1.1.1.1.1.1.1.1.1.1.1.1.1.1.1.1.1.1.1.1.1.1.1.1.1.1.1.1.1.1.1.1.1.1.1.1.1.1.1.1...",
"..1.1.1.1.1.1.1.1.1.1.1.1.1.1.1.1.1.1.1.1.1.1.1.1.1.1.1.1.1.1.1.1.1.1.1.1.1.1.1.1.1.1.1.1.1.1.1.1.1.1.1.1.1.1.1.1.1.1.1.1.1.1...",
"..1.1.1.1.1.1.1.1.1.1.1.1.1.1.1.1.1.1.1.1.1.1.1.1.1.1.1.1.1.1.1.1.1.1.1.1.1.1.1.1.1.1.1.1.1.1.1.1.1.1.1.1.1.1.1.1.1.1.1.1.1.1...",
"..1.1.1.1.1.1.1.1.1.1.1.1.1.1.1.1.1.1.1.1.1.1.1.1.1.1.1.1.1.1.1.1.1.1.1.1.1.1.1.1.1.1.1.1.1.1.1.1.1.1.1.1.1.1.1.1.1.1.1.1.1.1...",
"..1.1.1.1.1.1.1.1.1.1.1.1.1.1.1.1.1.1.1.1.1.1.1.1.1.1.1.1.1.1.1.1.1.1.1.1.1.1.1.1.1.1.1.1.1.1.1.1.1.1.1.1.1.1.1.1.1.1.1.1.1.1...",
"..1.1.1.1.1.1.1.1.1.1.1.1.1.1.1.1.1.1.1.1.1.1.1.1.1.1.1.1.1.1.1.1.1.1.1.1.1.1.1.1.1.1.1.1.1.1.1.1.1.1.1.1.1.1.1.1.1.1.1.1.1.1...",
"..1.1.1.1.1.1.1.1.1.1.1.1.1.1.1.1.1.1.1.1.1.1.1.1.1.1.1.1.1.1.1.1.1.1.1.1.1.1.1.1.1.1.1.1.1.1.1.1.1.1.1.1.1.1.1.1.1.1.1.1.1.1...",
"..1.1.1.1.1.1.1.1.1.1.1.1.1.1.1.1.1.1.1.1.1.1.1.1.1.1.1.1.1.1.1.1.1.1.1.1.1.1.1.1.1.1.1.1.1.1.1.1.1.1.1.1.1.1.1.1.1.1.1.1.1.1...",
"..1.1.1.1.1.1.1.1.1.1.1.1.1.G x 1.1.1.1.1.1.1.1.1.1.1.1.1.1.1.1.1.1.1.1.1.1.1.1.1.1.1.1.1.1.1.1.1.1.1.1.1.1.1.1.1.1.1.1.1.1.1...",
"..1.1.1.1.1.1.1.1.1.1.1.1.1.% d a 1.1.1.1.1.1.1.1.1.1.1.1.1.1.1.1.1.1.1.1.1.1.1.1.1.1.1.1.1.1.1.1.1.1.1.1.1.1.1.1.1.1.1.1.1.1...",
"..1.1.1.1.1.1.1.1.1.1.1.1.1.E i g C 1.1.1.1.1.1.1.1.1.1.1.1.1.1.1.1.1.1.1.1.1.1.1.1.1.1.1.1.1.1.1.1.1.1.1.1.1.1.1.1.1.1.1.1.1...",
"..1.1.1.1.1.1.1.1.1.1.1.1.1.E +.6 @.O.1.1.1.1.1.1.1.1.1.1.1.1.1.1.1.1.1.1.1.1.1.1.1.1.1.1.1.1.1.1.1.1.1.1.1.1.1.1.1.1.1.1.1.1...",
"..1.1.1.1.1.1.1.1.1.1.1.1.1.E +.F R 4.$ 1.1.1.1.1.1.1.1.1.1.1.1.1.1.1.1.1.1.1.1.1.1.1.1.1.1.1.1.1.1.1.1.1.1.1.1.1.1.1.1.1.1.1...",
"..1.1.1.1.1.1.1.1.1.1.1.1.1.E +.F F h c L 1.1.1.1.1.1.1.1.1.1.1.1.1.1.1.1.1.1.1.1.1.1.1.1.1.1.1.1.1.1.1.1.1.1.1.1.1.1.1.1.1.1...",
"..1.1.1.1.1.1.1.1.1.1.1.1.1.E +.S I o & 8 5 1.1.1.1.1.1.1.1.1.1.1.1.1.1.1.1.1.1.1.1.1.1.1.1.1.1.1.1.1.1.1.1.1.1.1.1.1.1.1.1.1...",
"..1.1.1.1.1.1.1.1.1.1.1.1.1.E +.` O 3 s [ { k 1.1.1.1.1.1.1.1.1.1.1.1.1.1.1.1.1.1.1.1.1.1.1.1.1.1.1.1.1.1.1.1.1.1.1.1.1.1.1.1...",
"..1.1.1.1.1.1.1.1.1.1.1.1.1.E +.` : w # h o -.X 1.1.1.1.1.1.1.1.1.1.1.1.1.1.1.1.1.1.1.1.1.1.1.1.1.1.1.1.1.1.1.1.1.1.1.1.1.1.1...",
"..1.1.1.1.1.1.1.1.1.1.1.1.1.E +.` : 1.$ p 1 _ j ,.1.1.1.1.1.1.1.1.1.1.1.1.1.1.1.1.1.1.1.1.1.1.1.1.1.1.1.1.1.1.1.1.1.1.1.1.1.1...",
"..1.1.1.1.1.1.1.1.1.1.1.1.1.E +.` : 1.1.&.P F K f 1.1.1.1.1.1.1.1.1.1.1.1.1.1.1.1.1.1.1.1.1.1.1.1.1.1.1.1.1.1.1.1.1.1.1.1.1.1...",
"..1.1.1.1.1.1.1.1.1.1.1.1.1.E +.` : 1.1.^ ' F K f 1.1.1.1.1.1.1.1.1.1.1.1.1.1.1.1.1.1.1.1.1.1.1.1.1.1.1.1.1.1.1.1.1.1.1.1.1.1...",
"..1.1.1.1.1.1.1.1.1.1.1.1.1.E +.` : 1.1.^ ' F K f 1.1.1.1.1.1.1.1.1.1.1.1.1.1.1.1.1.1.1.1.1.1.1.1.1.1.1.1.1.1.1.1.1.1.1.1.1.1...",
"..1.1.1.1.1.1.1.1.1.1.1.1.1.E +.` : 1.1.^ ' F K f 1.1.1.1.1.1.1.1.1.1.1.1.1.1.1.1.1.1.1.1.1.1.1.1.1.1.1.1.1.1.1.1.1.1.1.1.1.1...",
"..1.1.1.1.1.1.1.1.1.1.1.1.1.E +.` : 1.1.^ ' F K f 1.1.1.1.1.1.1.1.1.1.1.1.1.1.1.1.1.1.1.1.1.1.1.1.1.1.1.1.1.1.1.1.1.1.1.1.1.1...",
"..1.1.1.1.1.1.1.1.1.1.1.1.1.E +.` : 1.1.^ ' F K f 1.1.1.1.1.1.1.1.1.1.1.1.1.1.1.1.1.1.1.1.1.1.1.1.1.1.1.1.1.1.1.1.1.1.1.1.1.1...",
"..1.1.1.1.1.1.1.1.1.1.1.1.1.E +.` : 1.1.^ ' F K f 1.1.1.1.1.1.1.1.1.1.1.1.1.1.1.1.1.1.1.1.1.1.1.1.1.1.1.1.1.1.1.1.1.1.1.1.1.1...",
"..1.1.1.1.1.1.1.1.1.1.1.1.1.E +.` : 1.1.^ ' F K f 1.1.1.1.1.1.1.1.1.1.1.1.1.1.1.1.1.1.1.1.1.1.1.1.1.1.1.1.1.1.1.1.1.1.1.1.1.1...",
"..1.1.1.1.1.1.1.1.1.1.1.1.1.E +.` : 1.1.^ ' F K f 1.1.1.1.1.1.1.1.1.1.1.1.1.1.1.1.1.1.1.1.1.1.1.1.1.1.1.1.1.1.1.1.1.1.1.1.1.1...",
"..1.1.1.1.1.1.1.1.1.1.1.1.1.E +.` : 1.1.^ ' F K f 1.1.1.1.1.1.1.1.1.1.1.1.1.1.1.1.1.1.1.1.1.1.1.1.1.1.1.1.1.1.1.1.1.1.1.1.1.1...",
"..1.1.1.1.1.1.1.1.1.1.1.1.1.E +.` : 1.1.^ ' F K f 1.1.1.1.1.1.1.1.1.1.1.1.1.1.1.1.1.1.1.1.1.1.1.1.1.1.1.1.1.1.1.1.1.1.1.1.1.1...",
"..1.1.1.1.1.1.1.1.1.1.1.1.1.E +.` : 1.1.^ ' F K f 1.1.1.1.1.1.1.1.1.1.1.1.1.1.1.1.1.1.1.1.1.1.1.1.1.1.1.1.1.1.1.1.1.1.1.1.1.1...",
"..1.1.1.1.1.1.1.1.1.1.1.1.1.E +.` : 1.1.^ ' F K f 1.1.1.1.1.1.1.1.1.1.1.1.1.1.1.1.1.1.1.1.1.1.1.1.1.1.1.1.1.1.1.1.1.1.1.1.1.1...",
"..1.1.1.1.1.1.1.1.1.1.1.1.1.E +.` : 1.1.^ ' F K f 1.1.1.1.1.1.1.1.1.1.1.1.1.1.1.1.1.1.1.1.1.1.1.1.1.1.1.1.1.1.1.1.1.1.1.1.1.1...",
"..1.1.1.1.1.1.1.1.1.1.1.1.1.E +.` : 1.1.^ ' F K f 1.1.1.1.1.1.1.1.1.1.1.1.1.1.1.1.1.1.1.1.1.1.1.1.1.1.1.1.1.1.1.1.1.1.1.1.1.1...",
"..1.1.1.1.1.1.1.1.1.1.1.1.1.E +.` : 1.1.^ ' F K f 1.1.1.1.1.1.1.1.1.1.1.1.1.1.1.1.1.1.1.1.1.1.1.1.1.1.1.1.1.1.1.1.1.1.1.1.1.1...",
"..1.1.1.1.1.1.1.1.1.1.1.1.1.E +.` : 1.1.^ ' F K f 1.1.1.1.1.1.1.1.1.1.1.1.1.1.1.1.1.1.1.1.1.1.1.1.1.1.1.1.1.1.1.1.1.1.1.1.1.1...",
"..1.1.1.1.1.1.1.1.1.1.1.1.1.E +.` : 1.1.^ ' F K f 1.1.1.1.1.1.1.1.1.1.1.1.1.1.1.1.1.1.1.1.1.1.1.1.1.1.1.1.1.1.1.1.1.1.1.1.1.1...",
"..1.1.1.1.1.1.1.1.1.1.1.1.1.E +.` : 1.1.^ ' F K f 1.1.1.1.1.1.1.1.1.1.1.1.1.1.1.1.1.1.1.1.1.1.1.1.1.1.1.1.1.1.1.1.1.1.1.1.1.1...",
"..1.1.1.1.1.1.1.1.1.1.1.1.1.E +.` : 1.1.^ ' F K f 1.1.1.1.1.1.1.1.1.1.1.1.1.1.1.1.1.1.1.1.1.1.1.1.1.1.1.1.1.1.1.1.1.1.1.1.1.1...",
"..1.1.1.1.1.1.1.1.1.1.1.1.1.E +.` : 1.1.^ ' F K f 1.1.1.1.1.1.1.1.1.1.1.1.1.1.1.1.1.1.1.1.1.1.1.1.1.1.1.1.1.1.1.1.1.1.1.1.1.1...",
"..1.1.1.1.1.1.1.1.1.1.1.1.1.E +.` : 1.1.^ ' F K f 1.1.1.1.1.1.1.1.1.1.1.1.1.1.1.1.1.1.1.1.1.1.1.1.1.1.1.1.1.1.1.1.1.1.1.1.1.1...",
"..1.1.1.1.1.1.1.1.1.1.1.1.1.E +.` : 1.1.^ ' F K f 1.1.1.1.1.1.1.1.1.1.1.1.1.1.1.1.1.1.1.1.1.1.1.1.1.1.1.1.1.1.1.1.1.1.1.1.1.1...",
"..1.1.1.1.1.1.1.1.1.1.1.1.1.E +.` : 1.1.^ ' F K f 1.1.1.1.1.1.1.1.1.1.1.1.1.1.1.1.1.1.1.1.1.1.1.1.1.1.1.1.1.1.1.1.1.1.1.1.1.1...",
"..1.1.1.1.1.1.1.1.1.1.1.1.1.E +.` : 1.1.^ ' F K f 1.1.1.1.1.1.1.1.1.1.1.1.1.1.1.1.1.1.1.1.1.1.1.1.1.1.1.1.1.1.1.1.1.1.1.1.1.1...",
"..1.1.1.1.1.1.1.1.1.1.1.1.1.E +.  u 2 ( ^ ' F K f 1.$.X.X.X.X.X.X.X.X.X.X.X.X.2 9 1.1.1.1.1.1.1.1.1.1.1.1.1.1.1.1.1.1.1.1.1.1...",
"..1.1.1.1.1.1.1.1.1.1.1.1.1.E +.n . Y 2.^ ' F K f | b M M M M M M M M M M M M Q *.:.1.1.1.1.1.1.1.1.1.1.1.1.1.1.1.1.1.1.1.1.1...",
"..1.1.1.1.1.1.1.1.1.1.1.1.1.E +.F F 7 *.^ ' F K f e } F F F F F F F F F F F F F A O B 1.1.1.1.1.1.1.1.1.1.1.1.1.1.1.1.1.1.1.1...",
"..1.1.1.1.1.1.1.1.1.1.1.1.1.H <.=.=.J 2.^ ' F K f | 4 =.=.=.=.=.=.=.=.=.=.=.=., l ; ~ ^ 1.1.1.1.1.1.1.1.1.1.1.1.1.1.1.1.1.1.1...",
"..1.1.1.1.1.1.1.1.1.1.1.1.1.B z z z %.:.^ ' F K f 1.2 z z z z z z z z z z z z #.=.s @ 3.m 1.1.1.1.1.1.1.1.1.1.1.1.1.1.1.1.1.1...",
"..1.1.1.1.1.1.1.1.1.1.1.1.1.1.1.1.1.1.1.^ ' F K f 1.1.1.1.1.1.1.1.1.1.1.1.1.1.1.Z t & >.> 2 1.1.1.1.1.1.1.1.1.1.1.1.1.1.1.1.1...",
"..1.1.1.1.1.1.1.1.1.1.1.1.1.1.1.1.1.1.1.^ ' F K f 1.1.1.1.1.1.1.1.1.1.1.1.1.1.1.1.r # U v ) %.1.1.1.1.1.1.1.1.1.1.1.1.1.1.1.1...",
"..1.1.1.1.1.1.1.1.1.1.1.1.1.1.1.1.1.1.1.^ ' F   N V V V V V V V V V V V V V V V V V y o.F T  .= 1.1.1.1.1.1.1.1.1.1.1.1.1.1.1...",
"..1.1.1.1.1.1.1.1.1.1.1.1.1.1.1.1.1.1.1.^ ' F _ W U U U U U U U U U U U U U U U U U U - F F ] q + 1.1.1.1.1.1.1.1.1.1.1.1.1.1...",
"..1.1.1.1.1.1.1.1.1.1.1.1.1.1.1.1.1.1.1.^ D / / / / / / / / / / / / / / / / / / / / / / / / / ! ;.2 1.1.1.1.1.1.1.1.1.1.1.1.1...",
"..1.1.1.1.1.1.1.1.1.1.1.1.1.1.1.1.1.1.1.1.r 0 0 0 0 0 0 0 0 0 0 0 0 0 0 0 0 0 0 0 0 0 0 0 0 0 0 < m 1.1.1.1.1.1.1.1.1.1.1.1.1...",
"..1.1.1.1.1.1.1.1.1.1.1.1.1.1.1.1.1.1.1.1.1.1.1.1.1.1.1.1.1.1.1.1.1.1.1.1.1.1.1.1.1.1.1.1.1.1.1.1.1.1.1.1.1.1.1.1.1.1.1.1.1.1...",
"..1.1.1.1.1.1.1.1.1.1.1.1.1.1.1.1.1.1.1.1.1.1.1.1.1.1.1.1.1.1.1.1.1.1.1.1.1.1.1.1.1.1.1.1.1.1.1.1.1.1.1.1.1.1.1.1.1.1.1.1.1.1...",
"..1.1.1.1.1.1.1.1.1.1.1.1.1.1.1.1.1.1.1.1.1.1.1.1.1.1.1.1.1.1.1.1.1.1.1.1.1.1.1.1.1.1.1.1.1.1.1.1.1.1.1.1.1.1.1.1.1.1.1.1.1.1...",
"..1.1.1.1.1.1.1.1.1.1.1.1.1.1.1.1.1.1.1.1.1.1.1.1.1.1.1.1.1.1.1.1.1.1.1.1.1.1.1.1.1.1.1.1.1.1.1.1.1.1.1.1.1.1.1.1.1.1.1.1.1.1...",
"..1.1.1.1.1.1.1.1.1.1.1.1.1.1.1.1.1.1.1.1.1.1.1.1.1.1.1.1.1.1.1.1.1.1.1.1.1.1.1.1.1.1.1.1.1.1.1.1.1.1.1.1.1.1.1.1.1.1.1.1.1.1...",
"..1.1.1.1.1.1.1.1.1.1.1.1.1.1.1.1.1.1.1.1.1.1.1.1.1.1.1.1.1.1.1.1.1.1.1.1.1.1.1.1.1.1.1.1.1.1.1.1.1.1.1.1.1.1.1.1.1.1.1.1.1.1...",
"..1.1.1.1.1.1.1.1.1.1.1.1.1.1.1.1.1.1.1.1.1.1.1.1.1.1.1.1.1.1.1.1.1.1.1.1.1.1.1.1.1.1.1.1.1.1.1.1.1.1.1.1.1.1.1.1.1.1.1.1.1.1...",
"..1.1.1.1.1.1.1.1.1.1.1.1.1.1.1.1.1.1.1.1.1.1.1.1.1.1.1.1.1.1.1.1.1.1.1.1.1.1.1.1.1.1.1.1.1.1.1.1.1.1.1.1.1.1.1.1.1.1.1.1.1.1...",
"* ............................................................................................................................* "
};
