/* XPM */
static char *graphic[] = {
/* width height num_colors chars_per_pixel */
"48 48 102 2", 
/* colors */
"   c #122837",
".  c #3D4E5B",
"X  c #213544",
"o  c #E3E5E7",
"O  c #021A2A",
"+  c #0E2433",
"@  c #1B303E",
"#  c #EEF0F1",
"$  c #1D3140",
"%  c #C3C8CC",
"&  c #0E2434",
"*  c #A5AEB3",
"=  c #D0D4D7",
"-  c #ECEDEF",
";  c #F7F8F8",
":  c #DBDFE1",
">  c #A3ABB1",
",  c #7A868F",
"<  c #4D5D68",
"1  c #F7F8F9",
"2  c #5C6A75",
"3  c #4D5D69",
"4  c #586872",
"5  c #BDC3C8",
"6  c #818D95",
"7  c #203443",
"8  c #E2E4E6",
"9  c #C4CACD",
"0  c #112737",
"q  c #0D2332",
"w  c #1C303F",
"e  c #293C4A",
"r  c #0B2231",
"t  c #0D2333",
"y  c #435460",
"u  c #031A2A",
"i  c #79858D",
"p  c #EBECEE",
"a  c #071E2D",
"s  c #F8F8F9",
"d  c #091F2F",
"f  c #A2AAB0",
"g  c #849097",
"h  c #162B3A",
"j  c #BCC2C6",
"k  c #304350",
"l  c #A0A9AF",
"z  c #142A39",
"x  c #D6DADC",
"c  c #4A5B66",
"v  c #BAC1C5",
"b  c #4C5C68",
"n  c #F2F3F4",
"m  c #FFFFFF",
"M  c #021B2B",
"N  c #E1E3E5",
"B  c #D2D6D9",
"V  c #E1E3E6",
"C  c #021B2C",
"Z  c #0A2130",
"A  c #FBFBFC",
"S  c #192E3D",
"D  c #DBDEE0",
"F  c #DBDEE1",
"G  c #223644",
"H  c #929CA3",
"J  c #061D2D",
"K  c #132938",
"L  c #D5D9DB",
"P  c #E4E6E8",
"I  c #BBC1C6",
"U  c #F1F2F3",
"Y  c #8E989F",
"T  c #FEFEFE",
"R  c #727F88",
"E  c #0F2534",
"W  c #112636",
"Q  c #EFF1F2",
"!  c #99A3A9",
"~  c #616F79",
"^  c #0F2535",
"/  c #8A949B",
"(  c #1C3140",
")  c #DEE1E3",
"_  c #EBEDEE",
"`  c #5F6E78",
"'  c #88939A",
"]  c #8A949C",
"[  c #F8F9F9",
"{  c #09202F",
"}  c #FAFAFB",
"|  c #031B2B",
" . c #7B8790",
".. c #EBEDEF",
"X. c #253947",
"o. c #BEC4C8",
"O. c #F4F5F5",
"+. c #5D6B76",
"@. c #F6F6F7",
"#. c #6A7781",
"$. c #142938",
"%. c #051C2C",
/* pixels */
"C | | | | | | | | | | | | | | | | | | | | | | | | | | | | | | | | | | | | | | | | | | | | | | M ",
"| %.%.%.%.%.%.%.%.%.%.%.%.%.%.%.%.%.%.%.%.%.%.%.%.%.%.%.%.%.%.%.%.%.%.%.%.%.%.%.%.%.%.%.%.%.%.u ",
"| %.%.%.%.%.%.%.%.%.%.%.%.%.%.%.%.%.%.%.%.%.%.%.%.%.%.%.%.%.%.%.%.%.%.%.%.%.%.%.%.%.%.%.%.%.%.u ",
"| %.%.%.%.%.%.%.%.%.%.%.%.%.%.%.%.%.%.%.%.%.%.%.%.%.%.%.%.%.%.%.%.%.%.%.%.%.%.%.%.%.%.%.%.%.%.u ",
"| %.%.%.%.%.%.%.%.%.%.%.%.%.%.%.%.%.%.%.%.%.%.%.%.%.%.%.%.%.%.%.%.%.%.%.%.%.%.%.%.%.%.%.%.%.%.u ",
"| %.%.%.%.%.%.%.%.%.%.%.%.%.%.%.%.%.%.%.%.%.%.%.%.%.%.%.%.%.%.%.%.%.%.%.%.%.%.%.%.%.%.%.%.%.%.u ",
"| %.%.%.%.%.%.%.%.%.%.%.%.%.%.%.%.%.%.%.%.%.%.%.%.%.%.%.%.%.%.%.%.%.%.%.%.%.%.%.%.%.%.%.%.%.%.u ",
"| %.%.%.%.%.%.%.%.%.$.. d %.%.%.%.%.%.%.%.%.%.%.%.%.%.%.%.%.%.%.%.%.%.%.%.%.%.%.%.%.%.%.%.%.%.u ",
"| %.%.%.%.%.%.%.%.%.7 % ~ Z %.%.%.%.%.%.%.%.%.%.%.%.%.%.%.%.%.%.%.%.%.%.%.%.%.%.%.%.%.%.%.%.%.u ",
"| %.%.%.%.%.%.%.%.%.7 D _ #.r %.%.%.%.%.%.%.%.%.%.%.%.%.%.%.%.%.%.%.%.%.%.%.%.%.%.%.%.%.%.%.%.u ",
"| %.%.%.%.%.%.%.%.%.7 D m # R t %.%.%.%.%.%.%.%.%.%.%.%.%.%.%.%.%.%.%.%.%.%.%.%.%.%.%.%.%.%.%.u ",
"| %.%.%.%.%.%.%.%.%.7 D - p U  .^ %.%.%.%.%.%.%.%.%.%.%.%.%.%.%.%.%.%.%.%.%.%.%.%.%.%.%.%.%.%.u ",
"| %.%.%.%.%.%.%.%.%.7 D o.` N O.g 0 %.%.%.%.%.%.%.%.%.%.%.%.%.%.%.%.%.%.%.%.%.%.%.%.%.%.%.%.%.u ",
"| %.%.%.%.%.%.%.%.%.7 D v W < F @.' q %.%.%.%.%.%.%.%.%.%.%.%.%.%.%.%.%.%.%.%.%.%.%.%.%.%.%.%.u ",
"| %.%.%.%.%.%.%.%.%.7 D v & a < ..L w %.%.%.%.%.%.%.%.%.%.%.%.%.%.%.%.%.%.%.%.%.%.%.%.%.%.%.%.u ",
"| %.%.%.%.%.%.%.%.%.7 D v & %.X : x $ %.%.%.%.%.%.%.%.%.%.%.%.%.%.%.%.%.%.%.%.%.%.%.%.%.%.%.%.u ",
"| %.%.%.%.%.%.%.%.%.7 D v & %.X : x $ %.%.%.%.%.%.%.%.%.%.%.%.%.%.%.%.%.%.%.%.%.%.%.%.%.%.%.%.u ",
"| %.%.%.%.%.%.%.%.%.7 D v & %.X : x $ %.%.%.%.%.%.%.%.%.%.%.%.%.%.%.%.%.%.%.%.%.%.%.%.%.%.%.%.u ",
"| %.%.%.%.%.%.%.%.%.7 D v & %.X : x $ %.%.%.%.%.%.%.%.%.%.%.%.%.%.%.%.%.%.%.%.%.%.%.%.%.%.%.%.u ",
"| %.%.%.%.%.%.%.%.%.7 D v & %.X : x $ %.%.%.%.%.%.%.%.%.%.%.%.%.%.%.%.%.%.%.%.%.%.%.%.%.%.%.%.u ",
"| %.%.%.%.%.%.%.%.%.7 D v & %.X : x $ %.%.%.%.%.%.%.%.%.%.%.%.%.%.%.%.%.%.%.%.%.%.%.%.%.%.%.%.u ",
"| %.%.%.%.%.%.%.%.%.7 D v & %.X : x $ %.%.%.%.%.%.%.%.%.%.%.%.%.%.%.%.%.%.%.%.%.%.%.%.%.%.%.%.u ",
"| %.%.%.%.%.%.%.%.%.7 D v & %.X : x $ %.%.%.%.%.%.%.%.%.%.%.%.%.%.%.%.%.%.%.%.%.%.%.%.%.%.%.%.u ",
"| %.%.%.%.%.%.%.%.%.7 D v & %.X : x $ %.%.%.%.%.%.%.%.%.%.%.%.%.%.%.%.%.%.%.%.%.%.%.%.%.%.%.%.u ",
"| %.%.%.%.%.%.%.%.%.7 D v & %.X : x $ %.%.%.%.%.%.%.%.%.%.%.%.%.%.%.%.%.%.%.%.%.%.%.%.%.%.%.%.u ",
"| %.%.%.%.%.%.%.%.%.7 D v & %.X : x $ %.%.%.%.%.%.%.%.%.%.%.%.%.%.%.%.%.%.%.%.%.%.%.%.%.%.%.%.u ",
"| %.%.%.%.%.%.%.%.%.7 D v & %.X : x $ %.%.%.%.%.%.%.%.%.%.%.%.%.%.%.%.%.%.%.%.%.%.%.%.%.%.%.%.u ",
"| %.%.%.%.%.%.%.%.%.7 D v & %.X : x $ %.%.%.%.%.%.%.%.%.%.%.%.%.%.%.%.%.%.%.%.%.%.%.%.%.%.%.%.u ",
"| %.%.%.%.%.%.%.%.%.7 D v & %.X : x $ %.%.%.%.%.%.%.%.%.%.%.%.%.%.%.%.%.%.%.%.%.%.%.%.%.%.%.%.u ",
"| %.%.%.%.%.%.%.%.%.7 D v & %.X : x $ %.%.%.%.%.%.%.%.%.%.%.%.%.%.%.%.%.%.%.%.%.%.%.%.%.%.%.%.u ",
"| %.%.%.%.%.%.%.%.%.7 D v & %.X : x $ %.%.%.%.%.%.%.%.%.%.%.%.%.%.%.%.%.%.%.%.%.%.%.%.%.%.%.%.u ",
"| %.%.%.%.%.%.%.%.%.7 D v & %.X : x $ %.%.%.%.%.%.%.%.%.%.%.%.%.%.%.%.%.%.%.%.%.%.%.%.%.%.%.%.u ",
"| %.%.%.%.%.%.%.%.%.7 D v & %.X : x $ %.%.%.%.%.%.%.%.%.%.%.%.%.%.%.%.%.%.%.%.%.%.%.%.%.%.%.%.u ",
"| %.%.%.%.%.%.%.%.%.7 D 9 k K X : x $   e e e e e e e e e X.r %.%.%.%.%.%.%.%.%.%.%.%.%.%.%.%.u ",
"| %.%.%.%.%.%.%.%.%.7 D 1 o 2 X : x $ 4 V P P P P P P P P ) i E %.%.%.%.%.%.%.%.%.%.%.%.%.%.%.u ",
"| %.%.%.%.%.%.%.%.%.S > 5 j 3 X : x $ c I 5 5 5 5 5 5 5 5 = Q 6 W %.%.%.%.%.%.%.%.%.%.%.%.%.%.u ",
"| %.%.%.%.%.%.%.%.%.J + E E { X : x $ d E E E E E E E E E G * U ] K %.%.%.%.%.%.%.%.%.%.%.%.%.u ",
"| %.%.%.%.%.%.%.%.%.%.%.%.%.%.X : x $ %.%.%.%.%.%.%.%.%.%.%.@ l n H h %.%.%.%.%.%.%.%.%.%.%.%.u ",
"| %.%.%.%.%.%.%.%.%.%.%.%.%.%.X : 8 +.b b b b b b b b b b b b ` B [ ! S %.%.%.%.%.%.%.%.%.%.%.u ",
"| %.%.%.%.%.%.%.%.%.%.%.%.%.%.X : T s ; ; ; ; ; ; ; ; ; ; ; ; ; A m } f ( %.%.%.%.%.%.%.%.%.%.u ",
"| %.%.%.%.%.%.%.%.%.%.%.%.%.%.z , Y Y Y Y Y Y Y Y Y Y Y Y Y Y Y Y Y Y / y J %.%.%.%.%.%.%.%.%.u ",
"| %.%.%.%.%.%.%.%.%.%.%.%.%.%.%.%.%.%.%.%.%.%.%.%.%.%.%.%.%.%.%.%.%.%.%.%.%.%.%.%.%.%.%.%.%.%.u ",
"| %.%.%.%.%.%.%.%.%.%.%.%.%.%.%.%.%.%.%.%.%.%.%.%.%.%.%.%.%.%.%.%.%.%.%.%.%.%.%.%.%.%.%.%.%.%.u ",
"| %.%.%.%.%.%.%.%.%.%.%.%.%.%.%.%.%.%.%.%.%.%.%.%.%.%.%.%.%.%.%.%.%.%.%.%.%.%.%.%.%.%.%.%.%.%.u ",
"| %.%.%.%.%.%.%.%.%.%.%.%.%.%.%.%.%.%.%.%.%.%.%.%.%.%.%.%.%.%.%.%.%.%.%.%.%.%.%.%.%.%.%.%.%.%.u ",
"| %.%.%.%.%.%.%.%.%.%.%.%.%.%.%.%.%.%.%.%.%.%.%.%.%.%.%.%.%.%.%.%.%.%.%.%.%.%.%.%.%.%.%.%.%.%.u ",
"| %.%.%.%.%.%.%.%.%.%.%.%.%.%.%.%.%.%.%.%.%.%.%.%.%.%.%.%.%.%.%.%.%.%.%.%.%.%.%.%.%.%.%.%.%.%.u ",
"M u u u u u u u u u u u u u u u u u u u u u u u u u u u u u u u u u u u u u u u u u u u u u u O "
};
