/* XPM */
static char *graphic[] = {
/* width height num_colors chars_per_pixel */
"16 16 43 1", 
/* colors */
"  c #55656F",
". c #808B93",
"X c #717E87",
"o c #8B969D",
"O c #51616C",
"+ c #243845",
"@ c #243846",
"# c #4D5D68",
"$ c #081F2F",
"% c #061C2C",
"& c #5A6974",
"* c #818D95",
"= c #495965",
"- c #52616C",
"; c #0D2333",
": c #435460",
"> c #6C7982",
", c #52616D",
"< c #869198",
"1 c #091F2F",
"2 c #77848C",
"3 c #4C5C67",
"4 c #071E2E",
"5 c #142A39",
"6 c #213644",
"7 c #738089",
"8 c #808C94",
"9 c #1D3240",
"0 c #021B2B",
"q c #55646F",
"w c #465763",
"e c #89949B",
"r c #8B959D",
"t c #7A878F",
"y c #192E3D",
"u c #949DA4",
"i c #223644",
"p c #52626D",
"a c #031B2B",
"s c #4E5E69",
"d c #A2ABB1",
"f c #848F97",
"g c #051C2C",
/* pixels */
"0aaaaaaaaaaaaaa0",
"agggggggggggggga",
"agg69gggggggggga",
"aggqd@ggggggggga",
"aggp.o5gggggggga",
"aggO#<igggggggga",
"aggO3figggggggga",
"aggO3figggggggga",
"aggO3figggggggga",
"aggO3figggggggga",
"aggOsf+11$%gggga",
"agg=te&**8:4ggga",
"agg;yr-ww#u,$gga",
"aggg4 7XXX2>5gga",
"agggggggggggggga",
"0aaaaaaaaaaaaaa0"
};
