/* XPM */
static char *graphic[] = {
/* width height num_colors chars_per_pixel */
"32 32 71 1", 
/* colors */
"  c #122837",
". c #1F3442",
"X c #D6D9DC",
"o c #213544",
"O c #E3E5E7",
"+ c #576671",
"@ c #3B4D5A",
"# c #D4D8DB",
"$ c #1B303E",
"% c #606E78",
"& c #D0D4D7",
"* c #51616C",
"= c #C1C7CB",
"- c #78858D",
"; c #DDE0E3",
": c #4D5D68",
"> c #243846",
", c #A1AAB0",
"< c #CACFD2",
"1 c #152B3A",
"2 c #CCD0D4",
"3 c #D7DBDD",
"4 c #061C2C",
"5 c #2F4350",
"6 c #5A6974",
"7 c #112736",
"8 c #3A4C59",
"9 c #D3D7DA",
"0 c #EDEFF0",
"q c #B5BBC0",
"w c #97A1A7",
"e c #293C4A",
"r c #99A2A9",
"t c #273B49",
"y c #50606B",
"u c #A2AAB0",
"i c #D8DBDD",
"p c #AFB6BB",
"a c #071E2E",
"s c #304350",
"d c #142A39",
"f c #ADB5BA",
"g c #828D95",
"h c #1F3342",
"j c #021B2B",
"k c #0E2534",
"l c #98A1A8",
"z c #C1C6CA",
"x c #A5ADB3",
"c c #42535F",
"v c #4F5F6A",
"b c #263A48",
"n c #DBDEE1",
"m c #859098",
"M c #061D2D",
"N c #3C4E5A",
"B c #203543",
"V c #586772",
"C c #C8CDD1",
"Z c #D5D9DC",
"A c #727F88",
"S c #495A66",
"D c #0F2534",
"F c #293D4A",
"G c #2B3E4C",
"H c #0F2535",
"J c #DEE1E3",
"K c #031B2B",
"L c #B1B8BD",
"P c #4E5E6A",
"I c #051C2C",
/* pixels */
"jKKKKKKKKKKKKKKKKKKKKKKKKKKKKKKj",
"KIIIIIIIIIIIIIIIIIIIIIIIIIIIIIIK",
"KIIIIIIIIIIIIIIIIIIIIIIIIIIIIIIK",
"KIIIIIIIIIIIIIIIIIIIIIIIIIIIIIIK",
"KIIIIIIDMIIIIIIIIIIIIIIIIIIIIIIK",
"KIIIIIaA@MIIIIIIIIIIIIIIIIIIIIIK",
"KIIIIIa,9cMIIIIIIIIIIIIIIIIIIIIK",
"KIIIIIau0#SaIIIIIIIIIIIIIIIIIIIK",
"KIIIIIaulwi*aIIIIIIIIIIIIIIIIIIK",
"KIIIIIaumdr2$IIIIIIIIIIIIIIIIIIK",
"KIIIIIaumIVZ.IIIIIIIIIIIIIIIIIIK",
"KIIIIIaumI+Z.IIIIIIIIIIIIIIIIIIK",
"KIIIIIaumI+Z.IIIIIIIIIIIIIIIIIIK",
"KIIIIIaumI+Z.IIIIIIIIIIIIIIIIIIK",
"KIIIIIaumI+Z.IIIIIIIIIIIIIIIIIIK",
"KIIIIIaumI+Z.IIIIIIIIIIIIIIIIIIK",
"KIIIIIaumI+Z.IIIIIIIIIIIIIIIIIIK",
"KIIIIIaumI+Z.IIIIIIIIIIIIIIIIIIK",
"KIIIIIaumI+Z.IIIIIIIIIIIIIIIIIIK",
"KIIIIIaumI+Z.IIIIIIIIIIIIIIIIIIK",
"KIIIIIaumI+Z.IIIIIIIIIIIIIIIIIIK",
"KIIIIIaumI+Z.IIIIIIIIIIIIIIIIIIK",
"KIIIIIauL8+Ztv%%%%%6hIIIIIIIIIIK",
"KIIIIIag<-VZ5xCCCCC&pbIIIIIIIIIK",
"KIIIIIIH1k+ZB 11111owqGIIIIIIIIK",
"KIIIIIIIII+;yNNNNNNN:z=s4IIIIIIK",
"KIIIIIIIIIPJ3XXXXXXXXnOf>IIIIIIK",
"KIIIIIIIII7eFFFFFFFFFFFe IIIIIIK",
"KIIIIIIIIIIIIIIIIIIIIIIIIIIIIIIK",
"KIIIIIIIIIIIIIIIIIIIIIIIIIIIIIIK",
"KIIIIIIIIIIIIIIIIIIIIIIIIIIIIIIK",
"jKKKKKKKKKKKKKKKKKKKKKKKKKKKKKKj"
};
